<svg width="61" height="61" viewBox="0 0 61 61" fill="none" xmlns="http://www.w3.org/2000/svg">
<path fill-rule="evenodd" clip-rule="evenodd" d="M30.5 0C13.6553 0 0 13.6553 0 30.5C0 47.3447 13.6553 61 30.5 61C47.3447 61 61 47.3447 61 30.5C61 13.6553 47.3447 0 30.5 0ZM30.5 32.0597L42.7 24.2614V21.142L30.5 28.9403L18.3 21.142V24.2614L30.5 32.0597ZM18.3 18.0227H42.7C43.5089 18.0227 44.2847 18.3514 44.8567 18.9364C45.4287 19.5213 45.75 20.3148 45.75 21.142V39.858C45.75 40.6852 45.4287 41.4787 44.8567 42.0636C44.2847 42.6486 43.5089 42.9773 42.7 42.9773H18.3C17.4911 42.9773 16.7153 42.6486 16.1433 42.0636C15.5713 41.4787 15.25 40.6852 15.25 39.858V21.142C15.25 19.4108 16.6073 18.0227 18.3 18.0227Z" fill="white"/>
</svg>
