<svg width="61" height="61" viewBox="0 0 61 61" fill="none" xmlns="http://www.w3.org/2000/svg">
<path d="M30.5 0C13.664 0 0 13.664 0 30.5C0 47.336 13.664 61 30.5 61C47.336 61 61 47.336 61 30.5C61 13.664 47.336 0 30.5 0ZM44.652 20.74C44.1945 25.559 42.212 37.271 41.2055 42.6695C40.7785 44.957 39.9245 45.7195 39.1315 45.811C37.3625 45.9635 36.0205 44.652 34.3125 43.5235C31.6285 41.7545 30.1035 40.6565 27.511 38.9485C24.4915 36.966 26.4435 35.868 28.182 34.099C28.6395 33.6415 36.4475 26.535 36.6 25.8945C36.6212 25.7975 36.6184 25.6968 36.5918 25.6011C36.5652 25.5054 36.5157 25.4177 36.4475 25.3455C36.2645 25.193 36.0205 25.254 35.807 25.2845C35.5325 25.3455 31.2625 28.182 22.936 33.794C21.716 34.6175 20.618 35.0445 19.642 35.014C18.544 34.9835 16.47 34.404 14.9145 33.8855C12.993 33.2755 11.4985 32.94 11.6205 31.8725C11.6815 31.3235 12.444 30.7745 13.8775 30.195C22.7835 26.3215 28.7005 23.7595 31.659 22.5395C40.138 19.0015 41.8765 18.3915 43.0355 18.3915C43.2795 18.3915 43.859 18.4525 44.225 18.7575C44.53 19.0015 44.6215 19.337 44.652 19.581C44.6215 19.764 44.6825 20.313 44.652 20.74V20.74Z" fill="white"/>
</svg>
