<svg width="49" height="50" viewBox="0 0 49 50" fill="none" xmlns="http://www.w3.org/2000/svg">
<rect y="0.5" width="49" height="49" rx="8" fill="#F7931A"/>
<path d="M26.05 30.45L29.95 26.55C30.25 26.25 30.4 25.9 30.4 25.5C30.4 25.1 30.25 24.75 29.95 24.45L26.0125 20.5125C25.7375 20.2375 25.394 20.106 24.982 20.118C24.569 20.131 24.225 20.275 23.95 20.55C23.675 20.825 23.5375 21.175 23.5375 21.6C23.5375 22.025 23.675 22.375 23.95 22.65L25.3 24H20.4625C20.0375 24 19.6875 24.1435 19.4125 24.4305C19.1375 24.7185 19 25.075 19 25.5C19 25.925 19.144 26.281 19.432 26.568C19.719 26.856 20.075 27 20.5 27H25.3L23.9125 28.3875C23.6375 28.6625 23.506 29.0065 23.518 29.4195C23.531 29.8315 23.675 30.175 23.95 30.45C24.225 30.725 24.575 30.8625 25 30.8625C25.425 30.8625 25.775 30.725 26.05 30.45ZM25 40.5C22.925 40.5 20.975 40.106 19.15 39.318C17.325 38.531 15.7375 37.4625 14.3875 36.1125C13.0375 34.7625 11.969 33.175 11.182 31.35C10.394 29.525 10 27.575 10 25.5C10 23.425 10.394 21.475 11.182 19.65C11.969 17.825 13.0375 16.2375 14.3875 14.8875C15.7375 13.5375 17.325 12.4685 19.15 11.6805C20.975 10.8935 22.925 10.5 25 10.5C27.075 10.5 29.025 10.8935 30.85 11.6805C32.675 12.4685 34.2625 13.5375 35.6125 14.8875C36.9625 16.2375 38.031 17.825 38.818 19.65C39.606 21.475 40 23.425 40 25.5C40 27.575 39.606 29.525 38.818 31.35C38.031 33.175 36.9625 34.7625 35.6125 36.1125C34.2625 37.4625 32.675 38.531 30.85 39.318C29.025 40.106 27.075 40.5 25 40.5ZM25 37.5C28.325 37.5 31.1565 36.3315 33.4945 33.9945C35.8315 31.6565 37 28.825 37 25.5C37 22.175 35.8315 19.3435 33.4945 17.0055C31.1565 14.6685 28.325 13.5 25 13.5C21.675 13.5 18.844 14.6685 16.507 17.0055C14.169 19.3435 13 22.175 13 25.5C13 28.825 14.169 31.6565 16.507 33.9945C18.844 36.3315 21.675 37.5 25 37.5Z" fill="white"/>
</svg>
