<svg width="44" height="44" viewBox="0 0 44 44" fill="none" xmlns="http://www.w3.org/2000/svg">
<rect x="6" y="11" width="29" height="22" fill="white"/>
<path fill-rule="evenodd" clip-rule="evenodd" d="M22 0C9.84974 0 0 9.84974 0 22C0 34.1503 9.84974 44 22 44C34.1503 44 44 34.1503 44 22C44 9.84974 34.1503 0 22 0ZM22 23.125L30.8 17.5V15.25L22 20.875L13.2 15.25V17.5L22 23.125ZM13.2 13H30.8C31.3835 13 31.9431 13.2371 32.3556 13.659C32.7682 14.081 33 14.6533 33 15.25V28.75C33 29.3467 32.7682 29.919 32.3556 30.341C31.9431 30.7629 31.3835 31 30.8 31H13.2C12.6165 31 12.0569 30.7629 11.6444 30.341C11.2318 29.919 11 29.3467 11 28.75V15.25C11 14.0013 11.979 13 13.2 13Z" fill="#F7931A"/>
</svg>
