<svg width="44" height="44" viewBox="0 0 44 44" fill="none" xmlns="http://www.w3.org/2000/svg">
<path d="M43.3414 27.3221C40.4028 39.1078 28.4644 46.2804 16.676 43.3413C4.8924 40.403 -2.28105 28.4654 0.65901 16.6804C3.59632 4.89333 15.5346 -2.27996 27.3196 0.658386C39.1074 3.59673 46.2801 15.5357 43.3414 27.3221Z" fill="#F7931A"/>
<path d="M31.6958 18.9167C32.1337 15.9928 29.9047 14.4209 26.8568 13.3724L27.8455 9.41149L25.4315 8.81063L24.4689 12.6671C23.8343 12.5092 23.1825 12.3602 22.5349 12.2125L23.5043 8.33063L21.0917 7.72977L20.1023 11.6893C19.577 11.5698 19.0614 11.4517 18.5608 11.3274L18.5636 11.315L15.2345 10.4848L14.5923 13.0599C14.5923 13.0599 16.3834 13.4699 16.3456 13.4953C17.3232 13.739 17.4999 14.3852 17.4704 14.8975L16.3442 19.4098C16.4115 19.427 16.4989 19.4517 16.5951 19.4901C16.5147 19.4702 16.4288 19.4482 16.3401 19.4269L14.7614 25.748C14.6418 26.0447 14.3386 26.4896 13.6552 26.3207C13.6792 26.3557 11.9006 25.8833 11.9006 25.8833L10.7021 28.6431L13.8436 29.4252C14.428 29.5715 15.0007 29.7246 15.5645 29.8688L14.5655 33.875L16.9767 34.4759L17.9661 30.5123C18.6248 30.6908 19.2642 30.8556 19.8899 31.0108L18.9039 34.9559L21.3179 35.5568L22.3169 31.5581C26.4333 32.3362 29.5286 32.0223 30.8315 28.3039C31.8814 25.3099 30.7793 23.5828 28.6135 22.4567C30.1907 22.0934 31.3788 21.0572 31.6958 18.9167ZM26.1802 26.6414C25.4342 29.6354 20.387 28.0168 18.7506 27.611L20.0762 22.3035C21.7126 22.7114 26.9599 23.519 26.1802 26.6414ZM26.9269 18.8735C26.2462 21.5969 22.0453 20.2132 20.6826 19.874L21.8844 15.0603C23.2472 15.3995 27.6358 16.0326 26.9269 18.8735Z" fill="white"/>
</svg>
