<svg width="44" height="44" viewBox="0 0 44 44" fill="none" xmlns="http://www.w3.org/2000/svg">
<rect x="7" y="12" width="28" height="22" fill="white"/>
<path d="M22 0C9.856 0 0 9.856 0 22C0 34.144 9.856 44 22 44C34.144 44 44 34.144 44 22C44 9.856 34.144 0 22 0ZM32.208 14.96C31.878 18.436 30.448 26.884 29.722 30.778C29.414 32.428 28.798 32.978 28.226 33.044C26.95 33.154 25.982 32.208 24.75 31.394C22.814 30.118 21.714 29.326 19.844 28.094C17.666 26.664 19.074 25.872 20.328 24.596C20.658 24.266 26.29 19.14 26.4 18.678C26.4153 18.608 26.4132 18.5354 26.3941 18.4664C26.3749 18.3974 26.3392 18.3341 26.29 18.282C26.158 18.172 25.982 18.216 25.828 18.238C25.63 18.282 22.55 20.328 16.544 24.376C15.664 24.97 14.872 25.278 14.168 25.256C13.376 25.234 11.88 24.816 10.758 24.442C9.372 24.002 8.294 23.76 8.382 22.99C8.426 22.594 8.976 22.198 10.01 21.78C16.434 18.986 20.702 17.138 22.836 16.258C28.952 13.706 30.206 13.266 31.042 13.266C31.218 13.266 31.636 13.31 31.9 13.53C32.12 13.706 32.186 13.948 32.208 14.124C32.186 14.256 32.23 14.652 32.208 14.96Z" fill="#F7931A"/>
</svg>
