<svg width="188" height="38" viewBox="0 0 188 38" fill="none" xmlns="http://www.w3.org/2000/svg">
<path d="M57.4229 2.07031V17H54.5928L48.2456 6.64355V17H45.4258V2.07031H48.2456L54.6133 12.437V2.07031H57.4229Z" fill="white"/>
<path d="M70.917 14.7852V17H60.4375V14.7852H70.917ZM70.7222 3.72119L61.5962 17H59.6582V15.3081L68.8252 2.07031H70.7222V3.72119ZM69.7173 2.07031V4.29541H59.689V2.07031H69.7173Z" fill="white"/>
<path d="M83.96 10.3452H80.1455L80.125 8.35596H83.396C83.9565 8.35596 84.4248 8.27734 84.8008 8.12012C85.1768 7.96289 85.4604 7.73389 85.6519 7.43311C85.8501 7.13232 85.9492 6.7666 85.9492 6.33594C85.9492 5.85742 85.8569 5.46777 85.6724 5.16699C85.4946 4.86621 85.2144 4.64746 84.8315 4.51074C84.4487 4.36719 83.9634 4.29541 83.3755 4.29541H81.0581V17H78.2383V2.07031H83.3755C84.2231 2.07031 84.9785 2.15234 85.6416 2.31641C86.3115 2.47363 86.8789 2.71973 87.3438 3.05469C87.8086 3.38965 88.1606 3.81006 88.3999 4.31592C88.646 4.82178 88.769 5.42334 88.769 6.12061C88.769 6.73584 88.6255 7.30322 88.3384 7.82275C88.0581 8.33545 87.624 8.75244 87.0361 9.07373C86.4551 9.39502 85.7168 9.57959 84.8213 9.62744L83.96 10.3452ZM83.8369 17H79.3149L80.4941 14.7852H83.8369C84.3975 14.7852 84.8589 14.6929 85.2212 14.5083C85.5903 14.3237 85.8638 14.0708 86.0415 13.7495C86.2261 13.4214 86.3184 13.0454 86.3184 12.6216C86.3184 12.1567 86.2363 11.7534 86.0723 11.4116C85.915 11.0698 85.6621 10.8066 85.3135 10.6221C84.9717 10.4375 84.5205 10.3452 83.96 10.3452H81.0273L81.0479 8.35596H84.7803L85.4263 9.125C86.2876 9.13184 86.9883 9.30273 87.5283 9.6377C88.0752 9.97266 88.4785 10.4033 88.7383 10.9297C88.998 11.4561 89.1279 12.0234 89.1279 12.6318C89.1279 13.5889 88.9194 14.3921 88.5024 15.0415C88.0923 15.6909 87.4907 16.1797 86.6978 16.5078C85.9116 16.8359 84.958 17 83.8369 17Z" fill="white"/>
<path d="M94.2344 5.90527V17H91.5171V5.90527H94.2344ZM91.3325 3.00342C91.3325 2.6001 91.4692 2.26514 91.7427 1.99854C92.0229 1.73193 92.3989 1.59863 92.8706 1.59863C93.3423 1.59863 93.7148 1.73193 93.9883 1.99854C94.2686 2.26514 94.4087 2.6001 94.4087 3.00342C94.4087 3.3999 94.2686 3.73145 93.9883 3.99805C93.7148 4.26465 93.3423 4.39795 92.8706 4.39795C92.3989 4.39795 92.0229 4.26465 91.7427 3.99805C91.4692 3.73145 91.3325 3.3999 91.3325 3.00342Z" fill="white"/>
<path d="M102.068 5.90527V7.85352H95.7109V5.90527H102.068ZM97.4131 3.17773H100.13V13.8008C100.13 14.1289 100.175 14.3818 100.264 14.5596C100.353 14.7373 100.486 14.8569 100.664 14.9185C100.841 14.98 101.053 15.0107 101.299 15.0107C101.477 15.0107 101.641 15.0005 101.792 14.98C101.942 14.9595 102.068 14.939 102.171 14.9185L102.181 16.9487C101.956 17.0239 101.699 17.0854 101.412 17.1333C101.132 17.1812 100.814 17.2051 100.458 17.2051C99.8501 17.2051 99.3169 17.1025 98.8589 16.8975C98.4009 16.6855 98.0454 16.3472 97.7925 15.8823C97.5396 15.4106 97.4131 14.7886 97.4131 14.0161V3.17773Z" fill="white"/>
<path d="M108.426 15.0723C108.809 15.0723 109.15 14.9971 109.451 14.8467C109.752 14.6963 109.991 14.4844 110.169 14.2109C110.354 13.9375 110.453 13.6196 110.466 13.2573H113.02C113.006 14.0093 112.794 14.6826 112.384 15.2773C111.974 15.8721 111.427 16.3438 110.743 16.6924C110.066 17.0342 109.308 17.2051 108.467 17.2051C107.612 17.2051 106.867 17.0615 106.231 16.7744C105.596 16.4873 105.066 16.0874 104.642 15.5747C104.225 15.062 103.911 14.4673 103.699 13.7905C103.494 13.1138 103.391 12.3892 103.391 11.6167V11.2886C103.391 10.5161 103.494 9.7915 103.699 9.11475C103.911 8.43799 104.225 7.84326 104.642 7.33057C105.066 6.81787 105.596 6.41797 106.231 6.13086C106.867 5.84375 107.609 5.7002 108.457 5.7002C109.352 5.7002 110.138 5.87451 110.815 6.22314C111.499 6.57178 112.032 7.06396 112.415 7.69971C112.804 8.33545 113.006 9.08398 113.02 9.94531H110.466C110.453 9.54883 110.364 9.19336 110.2 8.87891C110.036 8.56445 109.803 8.31152 109.502 8.12012C109.202 7.92871 108.836 7.83301 108.405 7.83301C107.947 7.83301 107.564 7.92871 107.257 8.12012C106.956 8.31152 106.72 8.57471 106.549 8.90967C106.385 9.23779 106.269 9.60693 106.201 10.0171C106.139 10.4204 106.108 10.8442 106.108 11.2886V11.6167C106.108 12.0679 106.139 12.4985 106.201 12.9087C106.269 13.3188 106.385 13.688 106.549 14.0161C106.72 14.3374 106.956 14.5938 107.257 14.7852C107.564 14.9766 107.954 15.0723 108.426 15.0723Z" fill="white"/>
<path d="M114.342 11.5654V11.3501C114.342 10.5366 114.458 9.78809 114.691 9.10449C114.923 8.41406 115.262 7.81592 115.706 7.31006C116.15 6.8042 116.694 6.41113 117.336 6.13086C117.979 5.84375 118.71 5.7002 119.531 5.7002C120.365 5.7002 121.103 5.84375 121.746 6.13086C122.395 6.41113 122.942 6.8042 123.386 7.31006C123.831 7.81592 124.169 8.41406 124.401 9.10449C124.634 9.78809 124.75 10.5366 124.75 11.3501V11.5654C124.75 12.3721 124.634 13.1206 124.401 13.811C124.169 14.4946 123.831 15.0928 123.386 15.6055C122.942 16.1113 122.398 16.5044 121.756 16.7847C121.113 17.0649 120.378 17.2051 119.551 17.2051C118.731 17.2051 117.996 17.0649 117.347 16.7847C116.697 16.5044 116.15 16.1113 115.706 15.6055C115.262 15.0928 114.923 14.4946 114.691 13.811C114.458 13.1206 114.342 12.3721 114.342 11.5654ZM117.049 11.3501V11.5654C117.049 12.0508 117.097 12.5054 117.193 12.9292C117.289 13.353 117.436 13.7256 117.634 14.0469C117.832 14.3682 118.088 14.6211 118.403 14.8057C118.724 14.9834 119.107 15.0723 119.551 15.0723C119.989 15.0723 120.365 14.9834 120.679 14.8057C120.994 14.6211 121.25 14.3682 121.448 14.0469C121.653 13.7256 121.804 13.353 121.899 12.9292C121.995 12.5054 122.043 12.0508 122.043 11.5654V11.3501C122.043 10.8716 121.995 10.4238 121.899 10.0068C121.804 9.58301 121.653 9.21045 121.448 8.88916C121.25 8.56104 120.99 8.30469 120.669 8.12012C120.354 7.92871 119.975 7.83301 119.531 7.83301C119.093 7.83301 118.717 7.92871 118.403 8.12012C118.088 8.30469 117.832 8.56104 117.634 8.88916C117.436 9.21045 117.289 9.58301 117.193 10.0068C117.097 10.4238 117.049 10.8716 117.049 11.3501Z" fill="white"/>
<path d="M129.59 5.90527V17H126.873V5.90527H129.59ZM126.688 3.00342C126.688 2.6001 126.825 2.26514 127.098 1.99854C127.378 1.73193 127.754 1.59863 128.226 1.59863C128.698 1.59863 129.07 1.73193 129.344 1.99854C129.624 2.26514 129.764 2.6001 129.764 3.00342C129.764 3.3999 129.624 3.73145 129.344 3.99805C129.07 4.26465 128.698 4.39795 128.226 4.39795C127.754 4.39795 127.378 4.26465 127.098 3.99805C126.825 3.73145 126.688 3.3999 126.688 3.00342Z" fill="white"/>
<path d="M134.83 8.27393V17H132.123V5.90527H134.666L134.83 8.27393ZM134.399 11.0527H133.599C133.606 10.2461 133.715 9.51465 133.927 8.8584C134.139 8.20215 134.437 7.63818 134.819 7.1665C135.209 6.69482 135.67 6.33252 136.204 6.07959C136.737 5.82666 137.332 5.7002 137.988 5.7002C138.521 5.7002 139.003 5.77539 139.434 5.92578C139.864 6.07617 140.233 6.31543 140.541 6.64355C140.855 6.97168 141.095 7.40234 141.259 7.93555C141.43 8.46191 141.515 9.11133 141.515 9.88379V17H138.788V9.86328C138.788 9.35742 138.712 8.95752 138.562 8.66357C138.418 8.36963 138.207 8.16113 137.926 8.03809C137.653 7.91504 137.314 7.85352 136.911 7.85352C136.494 7.85352 136.128 7.93896 135.814 8.10986C135.506 8.27393 135.247 8.50293 135.035 8.79688C134.83 9.09082 134.672 9.4292 134.563 9.81201C134.454 10.1948 134.399 10.6084 134.399 11.0527Z" fill="white"/>
<path d="M148.888 17.2051C148.047 17.2051 147.292 17.0684 146.622 16.7949C145.952 16.5215 145.381 16.1421 144.909 15.6567C144.444 15.1646 144.085 14.5938 143.833 13.9443C143.586 13.2881 143.463 12.584 143.463 11.832V11.4219C143.463 10.5674 143.586 9.7915 143.833 9.09424C144.079 8.39014 144.427 7.78516 144.878 7.2793C145.33 6.77344 145.87 6.38379 146.499 6.11035C147.127 5.83691 147.821 5.7002 148.58 5.7002C149.366 5.7002 150.06 5.8335 150.662 6.1001C151.263 6.35986 151.766 6.729 152.169 7.20752C152.572 7.68604 152.876 8.26025 153.082 8.93018C153.287 9.59326 153.389 10.3281 153.389 11.1348V12.2729H144.694V10.4067H150.723V10.2017C150.709 9.771 150.627 9.37793 150.477 9.02246C150.327 8.66016 150.094 8.37305 149.78 8.16113C149.465 7.94238 149.059 7.83301 148.56 7.83301C148.156 7.83301 147.804 7.92188 147.503 8.09961C147.209 8.27051 146.963 8.5166 146.765 8.83789C146.574 9.15234 146.43 9.52832 146.334 9.96582C146.239 10.4033 146.191 10.8887 146.191 11.4219V11.832C146.191 12.2969 146.252 12.7275 146.375 13.124C146.505 13.5205 146.693 13.8657 146.939 14.1597C147.192 14.4468 147.493 14.6724 147.842 14.8364C148.197 14.9937 148.601 15.0723 149.052 15.0723C149.619 15.0723 150.132 14.9629 150.59 14.7441C151.055 14.5186 151.458 14.187 151.8 13.7495L153.164 15.1646C152.931 15.5063 152.617 15.8345 152.22 16.1489C151.831 16.4634 151.359 16.7197 150.805 16.918C150.251 17.1094 149.612 17.2051 148.888 17.2051Z" fill="white"/>
<path d="M157.911 8.17139V17H155.204V5.90527H157.768L157.911 8.17139ZM161.285 5.8335L161.244 8.35596C161.093 8.32861 160.922 8.30811 160.731 8.29443C160.546 8.28076 160.372 8.27393 160.208 8.27393C159.791 8.27393 159.425 8.33203 159.111 8.44824C158.796 8.55762 158.533 8.71826 158.321 8.93018C158.116 9.14209 157.959 9.40186 157.85 9.70947C157.74 10.0103 157.679 10.3521 157.665 10.7349L157.081 10.6631C157.081 9.95898 157.152 9.30615 157.296 8.70459C157.439 8.10303 157.648 7.57666 157.921 7.12549C158.195 6.67432 158.537 6.32568 158.947 6.07959C159.364 5.82666 159.842 5.7002 160.382 5.7002C160.533 5.7002 160.693 5.71387 160.864 5.74121C161.042 5.76172 161.182 5.79248 161.285 5.8335Z" fill="white"/>
<path d="M168.873 13.9648C168.873 13.7324 168.811 13.5239 168.688 13.3394C168.565 13.1548 168.333 12.9873 167.991 12.8369C167.656 12.6797 167.164 12.5327 166.514 12.396C165.94 12.2729 165.41 12.1191 164.925 11.9346C164.439 11.75 164.022 11.5278 163.674 11.2681C163.325 11.0015 163.052 10.6904 162.854 10.335C162.662 9.97266 162.566 9.55566 162.566 9.08398C162.566 8.62598 162.666 8.19531 162.864 7.79199C163.062 7.38184 163.349 7.02295 163.725 6.71533C164.101 6.40088 164.559 6.15479 165.099 5.97705C165.639 5.79248 166.248 5.7002 166.924 5.7002C167.868 5.7002 168.678 5.854 169.354 6.16162C170.038 6.46924 170.561 6.89307 170.923 7.43311C171.286 7.96631 171.467 8.56787 171.467 9.23779H168.76C168.76 8.94385 168.691 8.67725 168.555 8.43799C168.425 8.19873 168.223 8.00732 167.95 7.86377C167.676 7.71338 167.331 7.63818 166.914 7.63818C166.538 7.63818 166.22 7.69971 165.96 7.82275C165.708 7.9458 165.516 8.10645 165.386 8.30469C165.256 8.50293 165.191 8.72168 165.191 8.96094C165.191 9.13867 165.226 9.29932 165.294 9.44287C165.369 9.57959 165.489 9.70605 165.653 9.82227C165.817 9.93848 166.039 10.0444 166.319 10.1401C166.606 10.2358 166.958 10.3281 167.375 10.417C168.203 10.5811 168.924 10.7998 169.539 11.0732C170.161 11.3398 170.646 11.6953 170.995 12.1396C171.344 12.584 171.518 13.1514 171.518 13.8418C171.518 14.334 171.412 14.7852 171.2 15.1953C170.988 15.5986 170.681 15.9507 170.277 16.2515C169.874 16.5522 169.392 16.7881 168.832 16.959C168.271 17.123 167.639 17.2051 166.935 17.2051C165.916 17.2051 165.055 17.0239 164.351 16.6616C163.646 16.2925 163.113 15.8276 162.751 15.2671C162.389 14.6997 162.208 14.1118 162.208 13.5034H164.802C164.822 13.9341 164.938 14.2793 165.15 14.5391C165.362 14.7988 165.629 14.9868 165.95 15.103C166.278 15.2124 166.624 15.2671 166.986 15.2671C167.396 15.2671 167.741 15.2124 168.021 15.103C168.302 14.9868 168.514 14.833 168.657 14.6416C168.801 14.4434 168.873 14.2178 168.873 13.9648Z" fill="white"/>
<path d="M45.9448 27.1797V35H44.9082V27.1797H45.9448ZM49.2212 30.6978V31.5464H45.7192V30.6978H49.2212ZM49.7529 27.1797V28.0283H45.7192V27.1797H49.7529Z" fill="white"/>
<path d="M51.9175 29.1885V35H50.9185V29.1885H51.9175ZM50.8433 27.647C50.8433 27.4858 50.8916 27.3498 50.9883 27.2388C51.0885 27.1278 51.2354 27.0723 51.4287 27.0723C51.6185 27.0723 51.7635 27.1278 51.8638 27.2388C51.9676 27.3498 52.0195 27.4858 52.0195 27.647C52.0195 27.8009 51.9676 27.9334 51.8638 28.0444C51.7635 28.1519 51.6185 28.2056 51.4287 28.2056C51.2354 28.2056 51.0885 28.1519 50.9883 28.0444C50.8916 27.9334 50.8433 27.8009 50.8433 27.647Z" fill="white"/>
<path d="M54.1841 29.1885L55.457 31.3047L56.7461 29.1885H57.9116L56.0103 32.0566L57.9707 35H56.8213L55.4785 32.8193L54.1357 35H52.981L54.936 32.0566L53.04 29.1885H54.1841Z" fill="white"/>
<path d="M64.5234 27.1797V35H63.5029V27.1797H64.5234ZM67.0371 27.1797V28.0283H60.9946V27.1797H67.0371Z" fill="white"/>
<path d="M69.0405 26.75V35H68.0469V26.75H69.0405ZM68.8042 31.874L68.3906 31.8579C68.3942 31.4604 68.4533 31.0934 68.5679 30.7568C68.6825 30.4167 68.8436 30.1213 69.0513 29.8706C69.259 29.62 69.506 29.4266 69.7925 29.2905C70.0825 29.1509 70.403 29.0811 70.7539 29.0811C71.0404 29.0811 71.2982 29.1204 71.5273 29.1992C71.7565 29.2744 71.9517 29.3962 72.1128 29.5645C72.2775 29.7327 72.4028 29.9512 72.4888 30.2197C72.5747 30.4847 72.6177 30.8088 72.6177 31.1919V35H71.6187V31.1812C71.6187 30.8768 71.5739 30.6333 71.4844 30.4507C71.3949 30.2645 71.2642 30.1302 71.0923 30.0479C70.9204 29.9619 70.7091 29.9189 70.4585 29.9189C70.2114 29.9189 69.9858 29.9709 69.7817 30.0747C69.5812 30.1785 69.4076 30.3218 69.2607 30.5044C69.1175 30.687 69.0047 30.8965 68.9224 31.1328C68.8436 31.3656 68.8042 31.6126 68.8042 31.874Z" fill="white"/>
<path d="M76.5171 35.1074C76.1125 35.1074 75.7454 35.0394 75.416 34.9033C75.0902 34.7637 74.8091 34.5685 74.5728 34.3179C74.34 34.0672 74.161 33.77 74.0356 33.4263C73.9103 33.0825 73.8477 32.7065 73.8477 32.2983V32.0728C73.8477 31.6001 73.9175 31.1794 74.0571 30.8105C74.1968 30.4382 74.3866 30.123 74.6265 29.8652C74.8664 29.6074 75.1385 29.4123 75.4429 29.2798C75.7472 29.1473 76.0623 29.0811 76.3882 29.0811C76.8035 29.0811 77.1616 29.1527 77.4624 29.2959C77.7668 29.4391 78.0156 29.6396 78.209 29.8975C78.4023 30.1517 78.5456 30.4525 78.6387 30.7998C78.7318 31.1436 78.7783 31.5195 78.7783 31.9277V32.3735H74.4385V31.5625H77.7847V31.4873C77.7703 31.2295 77.7166 30.9788 77.6235 30.7354C77.534 30.4919 77.3908 30.2913 77.1938 30.1338C76.9969 29.9762 76.7284 29.8975 76.3882 29.8975C76.1626 29.8975 75.9549 29.9458 75.7651 30.0425C75.5754 30.1356 75.4124 30.2752 75.2764 30.4614C75.1403 30.6476 75.0347 30.875 74.9595 31.1436C74.8843 31.4121 74.8467 31.7218 74.8467 32.0728V32.2983C74.8467 32.5741 74.8843 32.8337 74.9595 33.0771C75.0382 33.3171 75.151 33.5283 75.2979 33.7109C75.4482 33.8936 75.6291 34.0368 75.8403 34.1406C76.0552 34.2445 76.2987 34.2964 76.5708 34.2964C76.9217 34.2964 77.2189 34.2248 77.4624 34.0815C77.7059 33.9383 77.9189 33.7467 78.1016 33.5068L78.7031 33.9849C78.5778 34.1746 78.4185 34.3555 78.2251 34.5273C78.0317 34.6992 77.7936 34.8389 77.5107 34.9463C77.2314 35.0537 76.9002 35.1074 76.5171 35.1074Z" fill="white"/>
<path d="M83.145 27.1797H84.1494L86.7114 33.5552L89.2681 27.1797H90.2778L87.0981 35H86.314L83.145 27.1797ZM82.8174 27.1797H83.7036L83.8486 31.9492V35H82.8174V27.1797ZM89.7139 27.1797H90.6001V35H89.5688V31.9492L89.7139 27.1797Z" fill="white"/>
<path d="M92.0073 32.1587V32.0352C92.0073 31.6162 92.0682 31.2277 92.1899 30.8696C92.3117 30.508 92.4871 30.1947 92.7163 29.9297C92.9455 29.6611 93.223 29.4535 93.5488 29.3066C93.8747 29.1562 94.2399 29.0811 94.6445 29.0811C95.0527 29.0811 95.4198 29.1562 95.7456 29.3066C96.075 29.4535 96.3543 29.6611 96.5835 29.9297C96.8162 30.1947 96.9935 30.508 97.1152 30.8696C97.237 31.2277 97.2979 31.6162 97.2979 32.0352V32.1587C97.2979 32.5776 97.237 32.9661 97.1152 33.3242C96.9935 33.6823 96.8162 33.9956 96.5835 34.2642C96.3543 34.5291 96.0768 34.7368 95.751 34.8872C95.4287 35.034 95.0635 35.1074 94.6553 35.1074C94.2471 35.1074 93.88 35.034 93.5542 34.8872C93.2284 34.7368 92.9491 34.5291 92.7163 34.2642C92.4871 33.9956 92.3117 33.6823 92.1899 33.3242C92.0682 32.9661 92.0073 32.5776 92.0073 32.1587ZM93.001 32.0352V32.1587C93.001 32.4487 93.035 32.7227 93.103 32.9805C93.1711 33.2347 93.2731 33.4603 93.4092 33.6572C93.5488 33.8542 93.7225 34.0099 93.9302 34.1245C94.1379 34.2355 94.3796 34.291 94.6553 34.291C94.9274 34.291 95.1655 34.2355 95.3696 34.1245C95.5773 34.0099 95.7492 33.8542 95.8853 33.6572C96.0213 33.4603 96.1234 33.2347 96.1914 32.9805C96.263 32.7227 96.2988 32.4487 96.2988 32.1587V32.0352C96.2988 31.7487 96.263 31.4784 96.1914 31.2241C96.1234 30.9663 96.0195 30.7389 95.8799 30.542C95.7438 30.3415 95.5719 30.1839 95.3643 30.0693C95.1602 29.9548 94.9202 29.8975 94.6445 29.8975C94.3724 29.8975 94.1325 29.9548 93.9248 30.0693C93.7207 30.1839 93.5488 30.3415 93.4092 30.542C93.2731 30.7389 93.1711 30.9663 93.103 31.2241C93.035 31.4784 93.001 31.7487 93.001 32.0352Z" fill="white"/>
<path d="M99.5376 30.4292V35H98.5439V29.1885H99.4839L99.5376 30.4292ZM99.3013 31.874L98.8877 31.8579C98.8913 31.4604 98.9504 31.0934 99.0649 30.7568C99.1795 30.4167 99.3407 30.1213 99.5483 29.8706C99.756 29.62 100.003 29.4266 100.29 29.2905C100.58 29.1509 100.9 29.0811 101.251 29.0811C101.537 29.0811 101.795 29.1204 102.024 29.1992C102.254 29.2744 102.449 29.3962 102.61 29.5645C102.775 29.7327 102.9 29.9512 102.986 30.2197C103.072 30.4847 103.115 30.8088 103.115 31.1919V35H102.116V31.1812C102.116 30.8768 102.071 30.6333 101.981 30.4507C101.892 30.2645 101.761 30.1302 101.589 30.0479C101.417 29.9619 101.206 29.9189 100.956 29.9189C100.708 29.9189 100.483 29.9709 100.279 30.0747C100.078 30.1785 99.9046 30.3218 99.7578 30.5044C99.6146 30.687 99.5018 30.8965 99.4194 31.1328C99.3407 31.3656 99.3013 31.6126 99.3013 31.874Z" fill="white"/>
<path d="M107.036 35.1074C106.631 35.1074 106.264 35.0394 105.935 34.9033C105.609 34.7637 105.328 34.5685 105.091 34.3179C104.859 34.0672 104.68 33.77 104.554 33.4263C104.429 33.0825 104.366 32.7065 104.366 32.2983V32.0728C104.366 31.6001 104.436 31.1794 104.576 30.8105C104.715 30.4382 104.905 30.123 105.145 29.8652C105.385 29.6074 105.657 29.4123 105.961 29.2798C106.266 29.1473 106.581 29.0811 106.907 29.0811C107.322 29.0811 107.68 29.1527 107.981 29.2959C108.285 29.4391 108.534 29.6396 108.728 29.8975C108.921 30.1517 109.064 30.4525 109.157 30.7998C109.25 31.1436 109.297 31.5195 109.297 31.9277V32.3735H104.957V31.5625H108.303V31.4873C108.289 31.2295 108.235 30.9788 108.142 30.7354C108.053 30.4919 107.909 30.2913 107.712 30.1338C107.515 29.9762 107.247 29.8975 106.907 29.8975C106.681 29.8975 106.473 29.9458 106.284 30.0425C106.094 30.1356 105.931 30.2752 105.795 30.4614C105.659 30.6476 105.553 30.875 105.478 31.1436C105.403 31.4121 105.365 31.7218 105.365 32.0728V32.2983C105.365 32.5741 105.403 32.8337 105.478 33.0771C105.557 33.3171 105.67 33.5283 105.816 33.7109C105.967 33.8936 106.148 34.0368 106.359 34.1406C106.574 34.2445 106.817 34.2964 107.089 34.2964C107.44 34.2964 107.737 34.2248 107.981 34.0815C108.224 33.9383 108.438 33.7467 108.62 33.5068L109.222 33.9849C109.096 34.1746 108.937 34.3555 108.744 34.5273C108.55 34.6992 108.312 34.8389 108.029 34.9463C107.75 35.0537 107.419 35.1074 107.036 35.1074Z" fill="white"/>
<path d="M112.015 34.3984L113.631 29.1885H114.695L112.364 35.897C112.31 36.0402 112.238 36.1942 112.149 36.3589C112.063 36.5272 111.952 36.6865 111.816 36.8369C111.68 36.9873 111.515 37.109 111.322 37.2021C111.132 37.2988 110.905 37.3472 110.64 37.3472C110.561 37.3472 110.461 37.3364 110.339 37.3149C110.217 37.2935 110.131 37.2756 110.081 37.2612L110.076 36.4556C110.104 36.4591 110.149 36.4627 110.21 36.4663C110.274 36.4735 110.319 36.4771 110.344 36.4771C110.57 36.4771 110.761 36.4466 110.919 36.3857C111.076 36.3285 111.209 36.23 111.316 36.0903C111.427 35.9543 111.522 35.7663 111.601 35.5264L112.015 34.3984ZM110.828 29.1885L112.337 33.7002L112.595 34.7476L111.88 35.1128L109.743 29.1885H110.828Z" fill="white"/>
<path d="M115.914 33.8184V34.6187C115.914 34.9445 115.832 35.2882 115.667 35.6499C115.502 36.0151 115.271 36.3195 114.974 36.563L114.41 36.1709C114.525 36.0133 114.621 35.8522 114.7 35.6875C114.779 35.5264 114.838 35.3581 114.877 35.1826C114.92 35.0107 114.942 34.8281 114.942 34.6348V33.8184H115.914Z" fill="white"/>
<path d="M121.097 27.1797V35H120.061V27.1797H121.097ZM124.374 30.6978V31.5464H120.872V30.6978H124.374ZM124.905 27.1797V28.0283H120.872V27.1797H124.905Z" fill="white"/>
<path d="M127.07 29.1885V35H126.071V29.1885H127.07ZM125.996 27.647C125.996 27.4858 126.044 27.3498 126.141 27.2388C126.241 27.1278 126.388 27.0723 126.581 27.0723C126.771 27.0723 126.916 27.1278 127.016 27.2388C127.12 27.3498 127.172 27.4858 127.172 27.647C127.172 27.8009 127.12 27.9334 127.016 28.0444C126.916 28.1519 126.771 28.2056 126.581 28.2056C126.388 28.2056 126.241 28.1519 126.141 28.0444C126.044 27.9334 125.996 27.8009 125.996 27.647Z" fill="white"/>
<path d="M129.336 29.1885L130.609 31.3047L131.898 29.1885H133.064L131.163 32.0566L133.123 35H131.974L130.631 32.8193L129.288 35H128.133L130.088 32.0566L128.192 29.1885H129.336Z" fill="white"/>
<path d="M139.676 27.1797V35H138.655V27.1797H139.676ZM142.189 27.1797V28.0283H136.147V27.1797H142.189Z" fill="white"/>
<path d="M144.193 26.75V35H143.199V26.75H144.193ZM143.957 31.874L143.543 31.8579C143.547 31.4604 143.606 31.0934 143.72 30.7568C143.835 30.4167 143.996 30.1213 144.204 29.8706C144.411 29.62 144.658 29.4266 144.945 29.2905C145.235 29.1509 145.555 29.0811 145.906 29.0811C146.193 29.0811 146.451 29.1204 146.68 29.1992C146.909 29.2744 147.104 29.3962 147.265 29.5645C147.43 29.7327 147.555 29.9512 147.641 30.2197C147.727 30.4847 147.77 30.8088 147.77 31.1919V35H146.771V31.1812C146.771 30.8768 146.726 30.6333 146.637 30.4507C146.547 30.2645 146.417 30.1302 146.245 30.0479C146.073 29.9619 145.861 29.9189 145.611 29.9189C145.364 29.9189 145.138 29.9709 144.934 30.0747C144.734 30.1785 144.56 30.3218 144.413 30.5044C144.27 30.687 144.157 30.8965 144.075 31.1328C143.996 31.3656 143.957 31.6126 143.957 31.874Z" fill="white"/>
<path d="M151.669 35.1074C151.265 35.1074 150.898 35.0394 150.568 34.9033C150.243 34.7637 149.961 34.5685 149.725 34.3179C149.492 34.0672 149.313 33.77 149.188 33.4263C149.063 33.0825 149 32.7065 149 32.2983V32.0728C149 31.6001 149.07 31.1794 149.209 30.8105C149.349 30.4382 149.539 30.123 149.779 29.8652C150.019 29.6074 150.291 29.4123 150.595 29.2798C150.9 29.1473 151.215 29.0811 151.541 29.0811C151.956 29.0811 152.314 29.1527 152.615 29.2959C152.919 29.4391 153.168 29.6396 153.361 29.8975C153.555 30.1517 153.698 30.4525 153.791 30.7998C153.884 31.1436 153.931 31.5195 153.931 31.9277V32.3735H149.591V31.5625H152.937V31.4873C152.923 31.2295 152.869 30.9788 152.776 30.7354C152.686 30.4919 152.543 30.2913 152.346 30.1338C152.149 29.9762 151.881 29.8975 151.541 29.8975C151.315 29.8975 151.107 29.9458 150.917 30.0425C150.728 30.1356 150.565 30.2752 150.429 30.4614C150.293 30.6476 150.187 30.875 150.112 31.1436C150.037 31.4121 149.999 31.7218 149.999 32.0728V32.2983C149.999 32.5741 150.037 32.8337 150.112 33.0771C150.191 33.3171 150.303 33.5283 150.45 33.7109C150.601 33.8936 150.781 34.0368 150.993 34.1406C151.208 34.2445 151.451 34.2964 151.723 34.2964C152.074 34.2964 152.371 34.2248 152.615 34.0815C152.858 33.9383 153.071 33.7467 153.254 33.5068L153.855 33.9849C153.73 34.1746 153.571 34.3555 153.377 34.5273C153.184 34.6992 152.946 34.8389 152.663 34.9463C152.384 35.0537 152.053 35.1074 151.669 35.1074Z" fill="white"/>
<path d="M160.027 32.6367L161.579 27.1797H162.331L161.896 29.3013L160.226 35H159.479L160.027 32.6367ZM158.421 27.1797L159.656 32.5293L160.027 35H159.286L157.39 27.1797H158.421ZM164.34 32.5239L165.548 27.1797H166.585L164.694 35H163.953L164.34 32.5239ZM162.444 27.1797L163.953 32.6367L164.501 35H163.754L162.143 29.3013L161.703 27.1797H162.444Z" fill="white"/>
<path d="M167.149 32.1587V32.0352C167.149 31.6162 167.21 31.2277 167.332 30.8696C167.453 30.508 167.629 30.1947 167.858 29.9297C168.087 29.6611 168.365 29.4535 168.69 29.3066C169.016 29.1562 169.382 29.0811 169.786 29.0811C170.194 29.0811 170.561 29.1562 170.887 29.3066C171.217 29.4535 171.496 29.6611 171.725 29.9297C171.958 30.1947 172.135 30.508 172.257 30.8696C172.379 31.2277 172.439 31.6162 172.439 32.0352V32.1587C172.439 32.5776 172.379 32.9661 172.257 33.3242C172.135 33.6823 171.958 33.9956 171.725 34.2642C171.496 34.5291 171.218 34.7368 170.893 34.8872C170.57 35.034 170.205 35.1074 169.797 35.1074C169.389 35.1074 169.022 35.034 168.696 34.8872C168.37 34.7368 168.091 34.5291 167.858 34.2642C167.629 33.9956 167.453 33.6823 167.332 33.3242C167.21 32.9661 167.149 32.5776 167.149 32.1587ZM168.143 32.0352V32.1587C168.143 32.4487 168.177 32.7227 168.245 32.9805C168.313 33.2347 168.415 33.4603 168.551 33.6572C168.69 33.8542 168.864 34.0099 169.072 34.1245C169.279 34.2355 169.521 34.291 169.797 34.291C170.069 34.291 170.307 34.2355 170.511 34.1245C170.719 34.0099 170.891 33.8542 171.027 33.6572C171.163 33.4603 171.265 33.2347 171.333 32.9805C171.405 32.7227 171.44 32.4487 171.44 32.1587V32.0352C171.44 31.7487 171.405 31.4784 171.333 31.2241C171.265 30.9663 171.161 30.7389 171.021 30.542C170.885 30.3415 170.714 30.1839 170.506 30.0693C170.302 29.9548 170.062 29.8975 169.786 29.8975C169.514 29.8975 169.274 29.9548 169.066 30.0693C168.862 30.1839 168.69 30.3415 168.551 30.542C168.415 30.7389 168.313 30.9663 168.245 31.2241C168.177 31.4784 168.143 31.7487 168.143 32.0352Z" fill="white"/>
<path d="M174.679 30.1016V35H173.686V29.1885H174.652L174.679 30.1016ZM176.495 29.1562L176.489 30.0801C176.407 30.0622 176.328 30.0514 176.253 30.0479C176.181 30.0407 176.099 30.0371 176.006 30.0371C175.777 30.0371 175.574 30.0729 175.399 30.1445C175.223 30.2161 175.075 30.3164 174.953 30.4453C174.831 30.5742 174.735 30.7282 174.663 30.9072C174.595 31.0827 174.55 31.276 174.529 31.4873L174.25 31.6484C174.25 31.2975 174.284 30.9681 174.352 30.6602C174.423 30.3522 174.532 30.0801 174.679 29.8438C174.826 29.6038 175.012 29.4176 175.238 29.2852C175.467 29.1491 175.739 29.0811 176.054 29.0811C176.126 29.0811 176.208 29.09 176.301 29.1079C176.394 29.1222 176.459 29.1383 176.495 29.1562Z" fill="white"/>
<path d="M178.493 26.75V35H177.494V26.75H178.493Z" fill="white"/>
<path d="M183.751 33.8721V26.75H184.75V35H183.837L183.751 33.8721ZM179.841 32.1587V32.0459C179.841 31.6019 179.895 31.1991 180.002 30.8374C180.113 30.4722 180.269 30.1589 180.469 29.8975C180.673 29.6361 180.915 29.4355 181.194 29.2959C181.477 29.1527 181.792 29.0811 182.14 29.0811C182.505 29.0811 182.824 29.1455 183.096 29.2744C183.371 29.3997 183.604 29.5841 183.794 29.8276C183.987 30.0675 184.139 30.3576 184.25 30.6978C184.361 31.0379 184.438 31.4229 184.481 31.8525V32.3467C184.442 32.7728 184.365 33.1559 184.25 33.4961C184.139 33.8363 183.987 34.1263 183.794 34.3662C183.604 34.6061 183.371 34.7905 183.096 34.9194C182.82 35.0448 182.498 35.1074 182.129 35.1074C181.789 35.1074 181.477 35.034 181.194 34.8872C180.915 34.7404 180.673 34.5345 180.469 34.2695C180.269 34.0046 180.113 33.693 180.002 33.335C179.895 32.9733 179.841 32.5812 179.841 32.1587ZM180.84 32.0459V32.1587C180.84 32.4487 180.868 32.7209 180.926 32.9751C180.987 33.2293 181.08 33.4531 181.205 33.6465C181.33 33.8398 181.49 33.992 181.683 34.103C181.876 34.2104 182.107 34.2642 182.376 34.2642C182.705 34.2642 182.976 34.1943 183.187 34.0547C183.402 33.915 183.574 33.7306 183.703 33.5015C183.832 33.2723 183.932 33.0234 184.003 32.7549V31.4604C183.96 31.2635 183.898 31.0737 183.815 30.8911C183.737 30.7049 183.633 30.5402 183.504 30.397C183.379 30.2502 183.223 30.1338 183.037 30.0479C182.854 29.9619 182.637 29.9189 182.387 29.9189C182.115 29.9189 181.88 29.9762 181.683 30.0908C181.49 30.2018 181.33 30.3558 181.205 30.5527C181.08 30.7461 180.987 30.9717 180.926 31.2295C180.868 31.4837 180.84 31.7559 180.84 32.0459Z" fill="white"/>
<path d="M186.313 34.4736C186.313 34.3053 186.365 34.1639 186.469 34.0493C186.576 33.9312 186.73 33.8721 186.931 33.8721C187.131 33.8721 187.283 33.9312 187.387 34.0493C187.495 34.1639 187.548 34.3053 187.548 34.4736C187.548 34.6383 187.495 34.778 187.387 34.8926C187.283 35.0072 187.131 35.0645 186.931 35.0645C186.73 35.0645 186.576 35.0072 186.469 34.8926C186.365 34.778 186.313 34.6383 186.313 34.4736Z" fill="white"/>
<g filter="url(#filter0_d_469_596)">
<mask id="path-3-inside-1_469_596" fill="white">
<path d="M22.44 16.2027C22.646 14.8194 21.5978 14.0758 20.1647 13.5797L20.6296 11.7059L19.4944 11.4216L19.0418 13.2461C18.7434 13.1714 18.4369 13.1009 18.1324 13.031L18.5882 11.1945L17.4538 10.9103L16.9885 12.7835C16.7415 12.7269 16.4991 12.6711 16.2637 12.6123L16.265 12.6064L14.6996 12.2137L14.3976 13.4319C14.3976 13.4319 15.2398 13.6259 15.222 13.6379C15.6818 13.7532 15.7648 14.0589 15.7509 14.3013L15.2214 16.436C15.2214 16.436 15.2214 16.436 15.2194 16.4441L14.4771 19.4345C14.4209 19.5749 14.2783 19.7854 13.9569 19.7055C13.9683 19.722 13.1319 19.4985 13.1319 19.4985L12.5684 20.8042L14.0455 21.1742C14.3203 21.2434 14.5896 21.3159 14.8547 21.3841L14.385 23.2794L15.5188 23.5636L15.984 21.6885C16.2938 21.773 16.5944 21.8509 16.8886 21.9243L16.425 23.7907L17.5601 24.075L18.0299 22.1833C19.9655 22.5513 21.421 22.4029 22.0337 20.6437C22.5273 19.2273 22.0091 18.4102 20.9907 17.8774C21.7323 17.7056 22.291 17.2154 22.44 16.2027ZM19.8465 19.8572C19.4957 21.2736 17.1224 20.5079 16.3529 20.3159L16.9763 17.805C17.7457 17.998 20.2131 18.38 19.8465 19.8572ZM20.1976 16.1823C19.8776 17.4707 17.9022 16.8161 17.2614 16.6556L17.8265 14.3783C18.4673 14.5388 20.5309 14.8383 20.1976 16.1823Z"/>
</mask>
<path d="M22.44 16.2027C22.646 14.8194 21.5978 14.0758 20.1647 13.5797L20.6296 11.7059L19.4944 11.4216L19.0418 13.2461C18.7434 13.1714 18.4369 13.1009 18.1324 13.031L18.5882 11.1945L17.4538 10.9103L16.9885 12.7835C16.7415 12.7269 16.4991 12.6711 16.2637 12.6123L16.265 12.6064L14.6996 12.2137L14.3976 13.4319C14.3976 13.4319 15.2398 13.6259 15.222 13.6379C15.6818 13.7532 15.7648 14.0589 15.7509 14.3013L15.2214 16.436C15.2214 16.436 15.2214 16.436 15.2194 16.4441L14.4771 19.4345C14.4209 19.5749 14.2783 19.7854 13.9569 19.7055C13.9683 19.722 13.1319 19.4985 13.1319 19.4985L12.5684 20.8042L14.0455 21.1742C14.3203 21.2434 14.5896 21.3159 14.8547 21.3841L14.385 23.2794L15.5188 23.5636L15.984 21.6885C16.2938 21.773 16.5944 21.8509 16.8886 21.9243L16.425 23.7907L17.5601 24.075L18.0299 22.1833C19.9655 22.5513 21.421 22.4029 22.0337 20.6437C22.5273 19.2273 22.0091 18.4102 20.9907 17.8774C21.7323 17.7056 22.291 17.2154 22.44 16.2027ZM19.8465 19.8572C19.4957 21.2736 17.1224 20.5079 16.3529 20.3159L16.9763 17.805C17.7457 17.998 20.2131 18.38 19.8465 19.8572ZM20.1976 16.1823C19.8776 17.4707 17.9022 16.8161 17.2614 16.6556L17.8265 14.3783C18.4673 14.5388 20.5309 14.8383 20.1976 16.1823Z" fill="#F7931A"/>
<path d="M22.44 16.2027L19.4727 15.761L19.472 15.7659L22.44 16.2027ZM20.1647 13.5797L17.2529 12.8573L16.5928 15.518L19.1834 16.4147L20.1647 13.5797ZM20.6296 11.7059L23.5413 12.4283L24.2621 9.52293L21.3583 8.79575L20.6296 11.7059ZM19.4944 11.4216L20.2232 8.51149L17.3067 7.7811L16.5827 10.6993L19.4944 11.4216ZM19.0418 13.2461L18.3131 16.1562L21.2296 16.8865L21.9536 13.9684L19.0418 13.2461ZM18.1324 13.031L15.2207 12.3083L14.485 15.2724L17.4618 15.9551L18.1324 13.031ZM18.5882 11.1945L21.4999 11.9173L22.221 9.01206L19.3174 8.2845L18.5882 11.1945ZM17.4538 10.9103L18.1829 8.00024L15.2668 7.26956L14.5422 10.1872L17.4538 10.9103ZM16.9885 12.7835L16.3193 15.7079L19.1902 16.3649L19.9001 13.5066L16.9885 12.7835ZM16.2637 12.6123L13.3344 11.965L12.7045 14.8153L15.5365 15.5228L16.2637 12.6123ZM16.265 12.6064L19.1943 13.2537L19.8235 10.4063L16.9951 9.69662L16.265 12.6064ZM14.6996 12.2137L15.4297 9.30385L12.5115 8.57167L11.7877 11.4919L14.6996 12.2137ZM14.3976 13.4319L11.4857 12.7102L10.7519 15.6709L13.7244 16.3554L14.3976 13.4319ZM15.222 13.6379L13.5419 11.1525L7.97803 14.9136L14.4921 16.5477L15.222 13.6379ZM15.7509 14.3013L18.6627 15.0236L18.73 14.7522L18.746 14.4731L15.7509 14.3013ZM15.2214 16.436L12.3096 15.7137L10.7693 21.923L16.5281 19.1365L15.2214 16.436ZM15.2194 16.4441L18.1311 17.1669L18.1345 17.153L18.1378 17.1392L15.2194 16.4441ZM14.4771 19.4345L17.2618 20.5507L17.3388 20.3584L17.3888 20.1573L14.4771 19.4345ZM13.9569 19.7055L14.6809 16.7942L7.03755 14.8934L11.4796 21.3974L13.9569 19.7055ZM13.1319 19.4985L13.9064 16.6002L11.4039 15.9315L10.3775 18.3097L13.1319 19.4985ZM12.5684 20.8042L9.81395 19.6154L8.41509 22.8565L11.8394 23.7143L12.5684 20.8042ZM14.0455 21.1742L14.7781 18.265L14.7745 18.2641L14.0455 21.1742ZM14.8547 21.3841L17.7666 22.1058L18.4819 19.2198L15.6024 18.4787L14.8547 21.3841ZM14.385 23.2794L11.4731 22.5577L10.7533 25.4617L13.6554 26.1893L14.385 23.2794ZM15.5188 23.5636L14.7893 26.4736L17.7064 27.2049L18.4305 24.286L15.5188 23.5636ZM15.984 21.6885L16.7734 18.7942L13.8116 17.9865L13.0723 20.9661L15.984 21.6885ZM16.8886 21.9243L19.8002 22.6476L20.5226 19.7392L17.615 19.0136L16.8886 21.9243ZM16.425 23.7907L13.5135 23.0675L12.7917 25.9735L15.6963 26.7009L16.425 23.7907ZM17.5601 24.075L16.8314 26.9851L19.7473 27.7153L20.4717 24.798L17.5601 24.075ZM18.0299 22.1833L18.5903 19.2361L15.8023 18.7059L15.1183 21.4603L18.0299 22.1833ZM22.0337 20.6437L19.2008 19.6563L19.2006 19.657L22.0337 20.6437ZM20.9907 17.8774L20.3135 14.9549L12.4261 16.7825L19.6 20.5356L20.9907 17.8774ZM19.8465 19.8572L16.9349 19.1345L16.9345 19.136L19.8465 19.8572ZM16.3529 20.3159L13.4413 19.5931L12.7194 22.5012L15.6266 23.2267L16.3529 20.3159ZM16.9763 17.805L17.706 14.8951L14.7892 14.1636L14.0646 17.0822L16.9763 17.805ZM20.1976 16.1823L23.1091 16.9055L23.1094 16.9044L20.1976 16.1823ZM17.2614 16.6556L14.3497 15.933L13.6287 18.8384L16.5326 19.5657L17.2614 16.6556ZM17.8265 14.3783L18.5554 11.4682L15.639 10.7377L14.9149 13.6557L17.8265 14.3783ZM25.4073 16.6445C25.6555 14.9775 25.1 13.5126 24.052 12.4509C23.1516 11.5389 22.0107 11.0441 21.1459 10.7448L19.1834 16.4147C19.4371 16.5025 19.6104 16.58 19.7219 16.6406C19.8357 16.7024 19.8347 16.7194 19.7821 16.6661C19.7186 16.6019 19.6048 16.4589 19.5301 16.2375C19.4542 16.0122 19.462 15.8335 19.4727 15.761L25.4073 16.6445ZM23.0764 14.3021L23.5413 12.4283L17.7178 10.9835L17.2529 12.8573L23.0764 14.3021ZM21.3583 8.79575L20.2232 8.51149L18.7657 14.3318L19.9008 14.616L21.3583 8.79575ZM16.5827 10.6993L16.1301 12.5237L21.9536 13.9684L22.4062 12.144L16.5827 10.6993ZM19.7705 10.3359C19.4388 10.2529 19.1041 10.176 18.803 10.107L17.4618 15.9551C17.7698 16.0258 18.0481 16.0899 18.3131 16.1562L19.7705 10.3359ZM21.044 13.7538L21.4999 11.9173L15.6766 10.4718L15.2207 12.3083L21.044 13.7538ZM19.3174 8.2845L18.1829 8.00024L16.7246 13.8203L17.8591 14.1046L19.3174 8.2845ZM14.5422 10.1872L14.077 12.0604L19.9001 13.5066L20.3653 11.6334L14.5422 10.1872ZM17.6578 9.85908C17.4095 9.80227 17.1938 9.75244 16.9908 9.70173L15.5365 15.5228C15.8043 15.5897 16.0735 15.6516 16.3193 15.7079L17.6578 9.85908ZM19.193 13.2595L19.1943 13.2537L13.3356 11.9592L13.3344 11.965L19.193 13.2595ZM16.9951 9.69662L15.4297 9.30385L13.9695 15.1235L15.5349 15.5162L16.9951 9.69662ZM11.7877 11.4919L11.4857 12.7102L17.3095 14.1537L17.6115 12.9354L11.7877 11.4919ZM14.3976 13.4319C13.7244 16.3554 13.7243 16.3554 13.7243 16.3554C13.7243 16.3554 13.7243 16.3554 13.7243 16.3554C13.7243 16.3554 13.7243 16.3554 13.7243 16.3554C13.7243 16.3554 13.7244 16.3554 13.7245 16.3554C13.7248 16.3555 13.7253 16.3556 13.7259 16.3558C13.7272 16.3561 13.7293 16.3565 13.732 16.3572C13.7376 16.3584 13.7459 16.3604 13.7567 16.3629C13.7783 16.3679 13.8094 16.3751 13.8468 16.3838C13.9222 16.4014 14.0204 16.4245 14.1165 16.4476C14.2169 16.4717 14.298 16.4917 14.346 16.5041C14.3772 16.5123 14.3611 16.5086 14.3228 16.497C14.3214 16.4966 14.2236 16.468 14.0996 16.4183C14.0862 16.4129 13.8315 16.3166 13.5494 16.1272C13.4631 16.0693 13.3215 15.968 13.1649 15.8205C13.0263 15.69 12.7497 15.4067 12.5311 14.963C12.2926 14.4789 12.0756 13.6869 12.3486 12.7762C12.6103 11.903 13.182 11.3958 13.5419 11.1525L16.9021 16.1233C17.2623 15.8798 17.8342 15.3723 18.096 14.499C18.369 13.588 18.152 12.7958 17.9134 12.3114C17.5368 11.547 16.9381 11.1755 16.893 11.1453C16.6088 10.9545 16.3504 10.8564 16.3318 10.8489C16.1974 10.7951 16.0833 10.761 16.0606 10.7542C15.9797 10.7297 15.9006 10.7089 15.8554 10.6971C15.7505 10.6698 15.6243 10.6391 15.5165 10.6132C15.4042 10.5863 15.293 10.5601 15.211 10.541C15.1698 10.5313 15.1352 10.5233 15.1108 10.5177C15.0986 10.5148 15.0889 10.5126 15.0821 10.511C15.0787 10.5102 15.076 10.5096 15.0741 10.5092C15.0732 10.509 15.0724 10.5088 15.0719 10.5087C15.0716 10.5086 15.0714 10.5086 15.0712 10.5085C15.0711 10.5085 15.0711 10.5085 15.071 10.5085C15.071 10.5085 15.0709 10.5085 15.0709 10.5084C15.0709 10.5084 15.0708 10.5084 14.3976 13.4319ZM14.4921 16.5477C14.1209 16.4546 13.5371 16.1723 13.1276 15.5238C12.7592 14.9405 12.7411 14.3876 12.7559 14.1295L18.746 14.4731C18.7747 13.9726 18.722 13.1456 18.2006 12.3201C17.6381 11.4293 16.7829 10.9365 15.952 10.728L14.4921 16.5477ZM12.8392 13.5789L12.3096 15.7137L18.1331 17.1583L18.6627 15.0236L12.8392 13.5789ZM15.2214 16.436C16.5289 19.1361 13.3591 18.788 12.2934 15.7824C12.2946 15.7772 12.297 15.7667 12.2982 15.7615C12.2994 15.7561 12.3004 15.7519 12.3006 15.7511C12.3012 15.7484 12.3017 15.7463 12.3018 15.746C12.3021 15.7446 12.3024 15.7436 12.3024 15.7434C12.3026 15.7427 12.3027 15.7422 12.3027 15.7421C12.3028 15.7418 12.3029 15.7415 12.3029 15.7415C12.3029 15.7413 12.3029 15.7412 12.3029 15.7413C12.3029 15.7413 12.3029 15.7415 12.3027 15.742C12.3025 15.743 12.302 15.745 12.3011 15.749L18.1378 17.1392C18.1388 17.1351 18.1393 17.1331 18.1395 17.132C18.1396 17.1315 18.1397 17.1312 18.1398 17.131C18.1398 17.1309 18.1398 17.1307 18.1399 17.1305C18.1399 17.1305 18.1399 17.1302 18.14 17.1299C18.14 17.1298 18.1402 17.1293 18.1403 17.1286C18.1404 17.1284 18.1406 17.1274 18.1409 17.126C18.141 17.1256 18.1415 17.1235 18.1421 17.1209C18.1423 17.1201 18.1433 17.1159 18.1446 17.1105C18.1458 17.1053 18.1481 17.0948 18.1493 17.0896C17.0837 14.084 13.9138 13.7359 15.2214 16.436ZM12.3078 15.7214L11.5655 18.7118L17.3888 20.1573L18.1311 17.1669L12.3078 15.7214ZM11.6925 18.3184C11.7735 18.1164 12 17.6273 12.5533 17.2254C13.2376 16.7283 14.0439 16.6357 14.6809 16.7942L13.2329 22.6168C14.1913 22.8551 15.2296 22.6973 16.0796 22.0798C16.7986 21.5575 17.1245 20.8931 17.2618 20.5507L11.6925 18.3184ZM11.4796 21.3974C11.2753 21.0984 10.8374 20.3349 10.9869 19.2834C11.1518 18.1241 11.899 17.453 12.3729 17.1584C12.8067 16.8886 13.2022 16.7981 13.3608 16.766C13.5555 16.7265 13.7145 16.7147 13.8046 16.7101C14.1 16.6953 14.3349 16.7307 14.3423 16.7317C14.409 16.7405 14.4598 16.7496 14.4806 16.7535C14.5059 16.7581 14.5251 16.762 14.5349 16.7641C14.5641 16.7701 14.5723 16.7725 14.5396 16.7646C14.4866 16.7517 14.4018 16.7302 14.3011 16.7041C14.2039 16.6789 14.1051 16.6529 14.0296 16.633C13.9921 16.623 13.9609 16.6147 13.9392 16.609C13.9284 16.6061 13.9199 16.6039 13.9143 16.6024C13.9115 16.6016 13.9094 16.6011 13.9081 16.6007C13.9074 16.6005 13.9069 16.6004 13.9067 16.6003C13.9065 16.6003 13.9064 16.6003 13.9064 16.6002C13.9064 16.6002 13.9063 16.6002 13.9063 16.6002C13.9063 16.6002 13.9064 16.6002 13.9064 16.6002C13.9064 16.6002 13.9064 16.6002 13.1319 19.4985C12.3574 22.3968 12.3574 22.3968 12.3574 22.3969C12.3574 22.3969 12.3575 22.3969 12.3575 22.3969C12.3575 22.3969 12.3576 22.3969 12.3577 22.3969C12.3578 22.397 12.3581 22.397 12.3583 22.3971C12.3588 22.3972 12.3596 22.3974 12.3605 22.3977C12.3623 22.3982 12.3649 22.3988 12.3682 22.3997C12.3749 22.4015 12.3844 22.404 12.3964 22.4072C12.4204 22.4136 12.4545 22.4227 12.4952 22.4334C12.5762 22.4549 12.6857 22.4837 12.7963 22.5123C12.9031 22.54 13.0253 22.5713 13.126 22.5957C13.1702 22.6064 13.2418 22.6235 13.3146 22.6386C13.3353 22.643 13.4349 22.664 13.5568 22.6801C13.5697 22.6818 13.8086 22.7176 14.1065 22.7025C14.1973 22.698 14.3568 22.6861 14.5519 22.6465C14.711 22.6143 15.1068 22.5237 15.5409 22.2538C16.015 21.959 16.7623 21.2877 16.9272 20.1282C17.0767 19.0766 16.6387 18.3128 16.4343 18.0135L11.4796 21.3974ZM10.3775 18.3097L9.81395 19.6154L15.3228 21.993L15.8863 20.6873L10.3775 18.3097ZM11.8394 23.7143L13.3166 24.0843L14.7745 18.2641L13.2973 17.8941L11.8394 23.7143ZM13.313 24.0834C13.5905 24.1533 13.7871 24.2071 14.1071 24.2894L15.6024 18.4787C15.3921 18.4246 15.0502 18.3336 14.7781 18.265L13.313 24.0834ZM11.9428 20.6624L11.4731 22.5577L17.2969 24.0011L17.7666 22.1058L11.9428 20.6624ZM13.6554 26.1893L14.7893 26.4736L16.2484 20.6537L15.1146 20.3694L13.6554 26.1893ZM18.4305 24.286L18.8958 22.4109L13.0723 20.9661L12.6071 22.8412L18.4305 24.286ZM15.1947 24.5828C15.5279 24.6736 15.8497 24.7571 16.1622 24.8351L17.615 19.0136C17.3392 18.9448 17.0597 18.8723 16.7734 18.7942L15.1947 24.5828ZM13.9771 21.2011L13.5135 23.0675L19.3365 24.514L19.8002 22.6476L13.9771 21.2011ZM15.6963 26.7009L16.8314 26.9851L18.2889 21.1648L17.1538 20.8806L15.6963 26.7009ZM20.4717 24.798L20.9415 22.9063L15.1183 21.4603L14.6486 23.352L20.4717 24.798ZM17.4695 25.1305C18.5393 25.3339 19.9973 25.5154 21.4141 25.0773C23.1032 24.5551 24.2815 23.3109 24.8668 21.6304L19.2006 19.657C19.1652 19.7585 19.171 19.6877 19.2892 19.5681C19.4169 19.4392 19.5593 19.3706 19.6417 19.3451C19.6989 19.3274 19.6595 19.3512 19.4602 19.3463C19.2619 19.3414 18.9814 19.3104 18.5903 19.2361L17.4695 25.1305ZM24.8665 21.6311C25.2785 20.449 25.4141 19.0726 24.8295 17.7309C24.2615 16.4272 23.2317 15.6641 22.3814 15.2192L19.6 20.5356C19.7681 20.6236 19.5066 20.5354 19.3289 20.1275C19.2421 19.9283 19.2207 19.7496 19.2226 19.6368C19.2243 19.5378 19.2429 19.5356 19.2008 19.6563L24.8665 21.6311ZM21.6679 20.8C22.4957 20.6082 23.3977 20.1927 24.1371 19.3955C24.8783 18.5964 25.2636 17.6213 25.4081 16.6396L19.472 15.7659C19.4675 15.7968 19.4989 15.5732 19.7381 15.3153C19.9755 15.0593 20.2273 14.9748 20.3135 14.9549L21.6679 20.8ZM16.9345 19.136C16.9968 18.8843 17.1313 18.5882 17.3696 18.3159C17.6026 18.0496 17.8591 17.8923 18.0567 17.8057C18.3917 17.6589 18.5791 17.7025 18.4135 17.6938C18.2923 17.6875 18.1014 17.6589 17.841 17.5995C17.7185 17.5716 17.5968 17.5407 17.4713 17.5077C17.3724 17.4818 17.1978 17.4347 17.0792 17.4052L15.6266 23.2267C15.7868 23.2666 16.9901 23.6275 18.1 23.6856C18.6677 23.7153 19.5623 23.6968 20.4651 23.3011C21.5245 22.8368 22.4274 21.9154 22.7585 20.5784L16.9345 19.136ZM19.2645 21.0387L19.8879 18.5278L14.0646 17.0822L13.4413 19.5931L19.2645 21.0387ZM16.2465 20.7149C16.3867 20.75 16.564 20.7892 16.6728 20.8139C16.8053 20.8439 16.9289 20.8726 17.0521 20.9044C17.3139 20.9718 17.4903 21.0324 17.5926 21.0791C17.7341 21.1436 17.53 21.0872 17.2929 20.7824C17.1541 20.6039 17.0068 20.342 16.9317 20.0048C16.8557 19.6634 16.8792 19.3588 16.9349 19.1345L22.7582 20.5798C23.0822 19.2742 22.7576 18.0353 22.0289 17.0986C21.4083 16.3007 20.608 15.8597 20.0822 15.62C19.0835 15.1645 17.7862 14.9152 17.706 14.8951L16.2465 20.7149ZM17.2861 15.459C17.3429 15.2304 17.4628 14.95 17.683 14.6806C17.902 14.4127 18.1549 14.2353 18.3775 14.1266C18.7693 13.9353 19.038 13.9672 18.9604 13.9643C18.9204 13.9628 18.8088 13.9503 18.6114 13.9054C18.5209 13.8848 18.4284 13.8612 18.3272 13.8344C18.2546 13.8151 18.0958 13.7719 17.9902 13.7455L16.5326 19.5657C16.6059 19.5841 17.7159 19.9225 18.7391 19.9602C19.2755 19.98 20.1381 19.9441 21.0104 19.5181C22.0269 19.0216 22.8097 18.1109 23.1091 16.9055L17.2861 15.459ZM20.1731 17.3782L20.7382 15.1008L14.9149 13.6557L14.3497 15.933L20.1731 17.3782ZM17.0977 17.2884C17.2266 17.3207 17.3887 17.356 17.4717 17.3745C17.5804 17.3988 17.6748 17.4206 17.7664 17.4442C17.966 17.4955 18.0641 17.5339 18.0917 17.547C18.1511 17.5752 17.8806 17.4697 17.6154 17.0979C17.466 16.8884 17.3317 16.6111 17.2694 16.2797C17.2073 15.9494 17.2353 15.664 17.2858 15.4601L23.1094 16.9044C23.4011 15.7282 23.1718 14.5556 22.5004 13.614C21.922 12.8031 21.158 12.3607 20.6631 12.1259C20.1363 11.8761 19.6192 11.7255 19.262 11.6335C19.0753 11.5855 18.9059 11.547 18.7805 11.519C18.6292 11.4852 18.5867 11.476 18.5554 11.4682L17.0977 17.2884Z" fill="#F7931A" mask="url(#path-3-inside-1_469_596)"/>
</g>
<path fill-rule="evenodd" clip-rule="evenodd" d="M17.5 33.6093C26.3969 33.6093 33.6093 26.3969 33.6093 17.5C33.6093 8.6031 26.3969 1.39073 17.5 1.39073C8.6031 1.39073 1.39073 8.6031 1.39073 17.5C1.39073 26.3969 8.6031 33.6093 17.5 33.6093ZM17.5 35C27.165 35 35 27.165 35 17.5C35 7.83502 27.165 0 17.5 0C7.83502 0 0 7.83502 0 17.5C0 27.165 7.83502 35 17.5 35Z" fill="white"/>
<path fill-rule="evenodd" clip-rule="evenodd" d="M17.5 33.6093C26.3969 33.6093 33.6093 26.3969 33.6093 17.5C33.6093 8.6031 26.3969 1.39073 17.5 1.39073C8.6031 1.39073 1.39073 8.6031 1.39073 17.5C1.39073 26.3969 8.6031 33.6093 17.5 33.6093ZM17.5 35C27.165 35 35 27.165 35 17.5C35 7.83502 27.165 0 17.5 0C7.83502 0 0 7.83502 0 17.5C0 27.165 7.83502 35 17.5 35Z" fill="url(#paint0_radial_469_596)" fill-opacity="0.2"/>
<defs>
<filter id="filter0_d_469_596" x="10.5684" y="10.9103" width="17.8975" height="23.1647" filterUnits="userSpaceOnUse" color-interpolation-filters="sRGB">
<feFlood flood-opacity="0" result="BackgroundImageFix"/>
<feColorMatrix in="SourceAlpha" type="matrix" values="0 0 0 0 0 0 0 0 0 0 0 0 0 0 0 0 0 0 127 0" result="hardAlpha"/>
<feOffset dx="2" dy="6"/>
<feGaussianBlur stdDeviation="2"/>
<feComposite in2="hardAlpha" operator="out"/>
<feColorMatrix type="matrix" values="0 0 0 0 0 0 0 0 0 0 0 0 0 0 0 0 0 0 0.1 0"/>
<feBlend mode="normal" in2="BackgroundImageFix" result="effect1_dropShadow_469_596"/>
<feBlend mode="normal" in="SourceGraphic" in2="effect1_dropShadow_469_596" result="shape"/>
</filter>
<radialGradient id="paint0_radial_469_596" cx="0" cy="0" r="1" gradientUnits="userSpaceOnUse" gradientTransform="translate(17.5 17.5) rotate(90) scale(17.5)">
<stop offset="0.869792" stop-opacity="0"/>
<stop offset="1"/>
</radialGradient>
</defs>
</svg>
