<svg width="40" height="40" viewBox="0 0 40 40" fill="none" xmlns="http://www.w3.org/2000/svg">
<path d="M39.4018 24.8386C36.7302 35.553 25.8771 42.0736 15.1602 39.4017C4.44769 36.7305 -2.07371 25.8779 0.599108 15.1642C3.26942 4.44853 14.1226 -2.07272 24.8363 0.598529C35.5526 3.26978 42.0734 14.1235 39.4018 24.8386V24.8386Z" fill="#F7931A"/>
<path d="M28.8148 17.1972C29.213 14.539 27.1866 13.1101 24.4157 12.1568L25.3145 8.55596L23.12 8.00971L22.2449 11.5157C21.668 11.3721 21.0754 11.2366 20.4866 11.1024L21.368 7.57334L19.1747 7.0271L18.2752 10.6267C17.7977 10.5181 17.3289 10.4107 16.8738 10.2977L16.8763 10.2865L13.8498 9.5317L13.2661 11.8727C13.2661 11.8727 14.8943 12.2454 14.8599 12.2685C15.7488 12.4901 15.9094 13.0776 15.8825 13.5433L14.8587 17.6454C14.9199 17.661 14.9993 17.6835 15.0868 17.7185C15.0137 17.7004 14.9356 17.6804 14.8549 17.661L13.4198 23.4075C13.311 23.6772 13.0354 24.0817 12.4141 23.9282C12.436 23.96 10.819 23.5305 10.819 23.5305L9.72949 26.0395L12.5854 26.7505C13.1167 26.8835 13.6373 27.0227 14.1499 27.1538L13.2417 30.7958L15.4337 31.3421L16.3332 27.7387C16.932 27.9011 17.5133 28.0509 18.0821 28.192L17.1858 31.7784L19.3803 32.3247L20.2885 28.6895C24.0307 29.3968 26.8447 29.1115 28.0292 25.7311C28.9836 23.0092 27.9816 21.4392 26.0127 20.4154C27.4466 20.0851 28.5267 19.1431 28.8148 17.1972V17.1972ZM23.8007 24.2197C23.1225 26.9415 18.534 25.4701 17.0464 25.1012L18.2515 20.2761C19.7391 20.6469 24.5095 21.3811 23.8007 24.2197ZM24.4795 17.1579C23.8607 19.6337 20.0416 18.3758 18.8027 18.0674L19.8953 13.6913C21.1342 13.9997 25.1239 14.5752 24.4795 17.1579Z" fill="white"/>
</svg>
