<svg width="62" height="61" viewBox="0 0 62 61" fill="none" xmlns="http://www.w3.org/2000/svg">
<path d="M30.9997 0.0834961C14.2097 0.0834961 0.583008 13.7102 0.583008 30.5002C0.583008 47.2902 14.2097 60.9168 30.9997 60.9168C47.7897 60.9168 61.4163 47.2902 61.4163 30.5002C61.4163 13.7102 47.7897 0.0834961 30.9997 0.0834961ZM45.113 20.7668C44.6568 25.5727 42.6797 37.2527 41.6759 42.6364C41.2501 44.9177 40.3984 45.6781 39.6076 45.7693C37.8434 45.9214 36.5051 44.6135 34.8018 43.4881C32.1251 41.7239 30.6043 40.6289 28.0188 38.9256C25.0076 36.9485 26.9543 35.8535 28.688 34.0893C29.1443 33.6331 36.9309 26.546 37.083 25.9072C37.1041 25.8105 37.1013 25.7101 37.0748 25.6146C37.0483 25.5192 36.9989 25.4317 36.9309 25.3597C36.7484 25.2077 36.5051 25.2685 36.2922 25.2989C36.0184 25.3597 31.7601 28.1885 23.4563 33.7852C22.2397 34.6064 21.1447 35.0322 20.1713 35.0018C19.0763 34.9714 17.008 34.3935 15.4568 33.8764C13.5405 33.2681 12.0501 32.9335 12.1718 31.8689C12.2326 31.3214 12.993 30.7739 14.4226 30.196C23.3043 26.3331 29.2051 23.7781 32.1555 22.5614C40.6113 19.0331 42.3451 18.4247 43.5009 18.4247C43.7443 18.4247 44.3222 18.4856 44.6872 18.7897C44.9913 19.0331 45.0826 19.3677 45.113 19.611C45.0826 19.7935 45.1434 20.341 45.113 20.7668Z" fill="white"/>
</svg>
